<svg width="12" height="15" viewBox="0 0 12 15" fill="none" xmlns="http://www.w3.org/2000/svg">
<path d="M6 0.166672L0 2.83334V6.83334C0 10.5333 2.56 13.9933 6 14.8333C9.44 13.9933 12 10.5333 12 6.83334V2.83334L6 0.166672ZM6 4.16667C6.93333 4.16667 7.86667 4.90001 7.86667 5.83334V6.83334C8.26667 6.83334 8.66667 7.23334 8.66667 7.70001V10.0333C8.66667 10.4333 8.26667 10.8333 7.8 10.8333H4.13333C3.73333 10.8333 3.33333 10.4333 3.33333 9.96667V7.63334C3.33333 7.23334 3.73333 6.83334 4.13333 6.83334V5.83334C4.13333 4.90001 5.06667 4.16667 6 4.16667ZM6 4.96667C5.46667 4.96667 5 5.30001 5 5.83334V6.83334H7V5.83334C7 5.30001 6.53333 4.96667 6 4.96667Z" fill="#102A66"/>
</svg>
