<svg width="24" height="25" viewBox="0 0 24 25" fill="none" xmlns="http://www.w3.org/2000/svg">
<g clip-path="url(#clip0_302_1999)">
<path d="M12 5.74512C12 5.5462 11.921 5.35544 11.7803 5.21479C11.6397 5.07413 11.4489 4.99512 11.25 4.99512C11.0511 4.99512 10.8603 5.07413 10.7197 5.21479C10.579 5.35544 10.5 5.5462 10.5 5.74512V13.9951C10.5 14.1273 10.535 14.2572 10.6014 14.3715C10.6678 14.4858 10.7632 14.5805 10.878 14.6461L16.128 17.6461C16.3003 17.7392 16.5022 17.7613 16.6905 17.7075C16.8788 17.6537 17.0386 17.5285 17.1358 17.3584C17.2329 17.1884 17.2597 16.9871 17.2104 16.7975C17.1612 16.608 17.0397 16.4453 16.872 16.3441L12 13.5601V5.74512Z" fill="#BD944E"/>
<path d="M12 24.4951C15.1826 24.4951 18.2348 23.2308 20.4853 20.9804C22.7357 18.73 24 15.6777 24 12.4951C24 9.31252 22.7357 6.26027 20.4853 4.00984C18.2348 1.7594 15.1826 0.495117 12 0.495117C8.8174 0.495117 5.76516 1.7594 3.51472 4.00984C1.26428 6.26027 0 9.31252 0 12.4951C0 15.6777 1.26428 18.73 3.51472 20.9804C5.76516 23.2308 8.8174 24.4951 12 24.4951ZM22.5 12.4951C22.5 15.2799 21.3938 17.9506 19.4246 19.9197C17.4555 21.8889 14.7848 22.9951 12 22.9951C9.21523 22.9951 6.54451 21.8889 4.57538 19.9197C2.60625 17.9506 1.5 15.2799 1.5 12.4951C1.5 9.71034 2.60625 7.03963 4.57538 5.0705C6.54451 3.10136 9.21523 1.99512 12 1.99512C14.7848 1.99512 17.4555 3.10136 19.4246 5.0705C21.3938 7.03963 22.5 9.71034 22.5 12.4951Z" fill="#BD944E"/>
</g>
<defs>
<clipPath id="clip0_302_1999">
<rect width="24" height="24" fill="white" transform="translate(0 0.495117)"/>
</clipPath>
</defs>
</svg>
