<svg width="34" height="13" viewBox="0 0 34 13" fill="none" xmlns="http://www.w3.org/2000/svg">
<path d="M33.0777 7.35417L33.835 7.31431L33.835 6.1186L21.0309 6.12857V5.51078L19.8452 5.52074L19.8452 6.1186L12.2524 6.1186L12.2624 5.51078L11.0667 5.51078L11.0766 6.1186L9.42256 6.1186C9.81287 5.63182 10.0597 5.04581 10.1352 4.42646C10.2107 3.80711 10.1119 3.17898 9.84999 2.61268C9.58806 2.04638 9.17336 1.56438 8.6525 1.22086C8.13164 0.877343 7.52528 0.685933 6.9016 0.66815C6.01527 0.673372 5.16672 1.02778 4.53998 1.65452C3.91324 2.28127 3.55883 3.12981 3.55361 4.01614L3.56357 4.24532C3.31916 4.15089 3.05819 4.10683 2.79632 4.11578C2.09441 4.11915 1.4222 4.39948 0.925866 4.89582C0.42953 5.39216 0.149201 6.06436 0.145831 6.76628C0.15073 7.46816 0.42962 8.14036 0.923042 8.63956C1.42224 9.13298 2.09444 9.41187 2.79632 9.41677C3.0573 9.41423 3.31623 9.37052 3.56357 9.28724L3.55361 9.51642C3.53502 10.0635 3.6506 10.6067 3.89027 11.0988C4.12993 11.5909 4.4864 12.0169 4.92855 12.3395C5.3707 12.6622 5.88511 12.8717 6.42686 12.9498C6.96861 13.0279 7.52125 12.9722 8.03653 12.7876C8.55182 12.603 9.0141 12.2951 9.38302 11.8908C9.75194 11.4864 10.0163 10.998 10.153 10.4679C10.2897 9.93793 10.2946 9.38252 10.1673 8.85018C10.04 8.31784 9.78428 7.82475 9.42256 7.41396L11.0966 7.29438L11.0966 7.85238L12.2723 7.85238L12.3022 7.36413L19.895 7.36413L19.8053 7.83245L20.9911 7.84242L21.0608 7.29438H25.8437L25.8138 12.1868L33.1176 12.1968L33.0777 7.35417ZM2.7465 8.17124C2.52553 8.15277 2.31203 8.08241 2.12338 7.96588C1.93472 7.84935 1.77623 7.68995 1.66078 7.50062C1.54533 7.3113 1.47619 7.09741 1.45899 6.87634C1.44178 6.65526 1.47698 6.43324 1.56174 6.22834C1.6465 6.02343 1.77843 5.84142 1.94678 5.69711C2.11513 5.55279 2.31517 5.45024 2.53062 5.3978C2.74608 5.34535 2.97086 5.3445 3.18671 5.39529C3.40256 5.44609 3.60337 5.54711 3.77282 5.69014C3.89777 5.81574 4.00203 5.96036 4.08171 6.1186L3.12514 6.1186L3.12514 7.31431L4.06179 7.31431C3.99739 7.47625 3.89883 7.62239 3.77282 7.74278C3.63977 7.88009 3.48016 7.98888 3.30372 8.06254C3.12728 8.1362 2.93769 8.17318 2.7465 8.17124ZM4.6995 3.96632C4.68951 3.68034 4.73731 3.39527 4.84003 3.12819C4.94276 2.8611 5.0983 2.61748 5.29735 2.4119C5.55321 2.15582 5.87331 1.9734 6.22403 1.88379L6.234 2.51154L7.41974 2.50157L7.41974 1.88379C7.77238 1.96859 8.09372 2.15172 8.34642 2.4119C8.59801 2.66226 8.7839 2.97087 8.88759 3.31033C8.99127 3.64978 9.00955 4.00959 8.94079 4.3578C8.87203 4.70602 8.71837 5.03187 8.49344 5.30644C8.26851 5.58101 7.97927 5.7958 7.6514 5.93175C7.32353 6.0677 6.96717 6.12059 6.61394 6.08575C6.26072 6.0509 5.92156 5.92938 5.62657 5.73199C5.33159 5.5346 5.0899 5.26743 4.92296 4.9542C4.75602 4.64097 4.66899 4.29137 4.6696 3.93643L4.6995 3.96632ZM9.00406 9.46659C9.01308 9.94664 8.85948 10.4156 8.56823 10.7973C8.27698 11.179 7.8652 11.451 7.39981 11.5691V10.9313L6.22403 10.9313L6.22403 11.5691C5.84226 11.458 5.49893 11.2429 5.23249 10.9478C4.96604 10.6527 4.78699 10.2892 4.71539 9.89813C4.64378 9.50704 4.68245 9.10373 4.82705 8.73337C4.97165 8.363 5.21649 8.04019 5.53415 7.80108C5.85181 7.56197 6.22975 7.416 6.62567 7.3795C7.02158 7.343 7.41984 7.41742 7.77586 7.59443C8.13188 7.77143 8.43161 8.04404 8.64148 8.38173C8.85136 8.71942 8.9631 9.10886 8.9642 9.50645L9.00406 9.46659ZM28.8927 11.0011L28.8927 9.68581H30.0287L30.0287 11.0011H28.8927ZM31.2144 8.50006L27.707 8.50006L27.707 11.0111L26.9995 11.0011L27.0294 7.28442L31.9518 7.28442L31.9518 10.9712L31.2443 10.9812L31.2144 8.50006Z" fill="#BD944E"/>
</svg>
