<svg width="18" height="17" viewBox="0 0 18 17" fill="none" xmlns="http://www.w3.org/2000/svg">
<path d="M8.16667 12.6667H9.83334V9.33335H13.1667V7.66669H9.83334V4.33335H8.16667V7.66669H4.83334V9.33335H8.16667V12.6667ZM9 16.8334C7.84723 16.8334 6.76389 16.6145 5.75001 16.1767C4.73612 15.7395 3.85417 15.1459 3.10417 14.3959C2.35417 13.6459 1.76056 12.7639 1.32334 11.75C0.885561 10.7361 0.666672 9.6528 0.666672 8.50002C0.666672 7.34724 0.885561 6.26391 1.32334 5.25002C1.76056 4.23613 2.35417 3.35419 3.10417 2.60419C3.85417 1.85419 4.73612 1.2603 5.75001 0.82252C6.76389 0.385298 7.84723 0.166687 9 0.166687C10.1528 0.166687 11.2361 0.385298 12.25 0.82252C13.2639 1.2603 14.1458 1.85419 14.8958 2.60419C15.6458 3.35419 16.2394 4.23613 16.6767 5.25002C17.1144 6.26391 17.3333 7.34724 17.3333 8.50002C17.3333 9.6528 17.1144 10.7361 16.6767 11.75C16.2394 12.7639 15.6458 13.6459 14.8958 14.3959C14.1458 15.1459 13.2639 15.7395 12.25 16.1767C11.2361 16.6145 10.1528 16.8334 9 16.8334Z" fill="#102A66" fill-opacity="0.4"/>
</svg>
