<?xml version="1.0" encoding="utf-8"?>
<!-- Generator: Adobe Illustrator 26.0.3, SVG Export Plug-In . SVG Version: 6.00 Build 0)  -->
<svg version="1.1" id="Isolatiemodus" xmlns="http://www.w3.org/2000/svg" xmlns:xlink="http://www.w3.org/1999/xlink" x="0px"
	 y="0px" viewBox="0 0 37.2 43.3" style="enable-background:new 0 0 37.2 43.3;" xml:space="preserve">
<style type="text/css">
	.st0{fill:#C9D3D6;}
</style>
<g>
	<path class="st0" d="M18.6,43.3C8.3,43.3,0,34.9,0,24.6V0.3l6.1,2.6l3-2.6l5.1,2.8L18.5,0l4.2,3l4.6-2.7l3.5,2.6l6.3-2.6v24.3
		C37.2,34.9,28.9,43.3,18.6,43.3z M1.7,2.8v21.8c0,9.4,7.6,17,16.9,17c9.3,0,16.9-7.6,16.9-17V2.8l-4.9,2l-3.4-2.5L22.6,5l-4.1-3
		l-4.1,3l-5-2.8L6.4,4.8L1.7,2.8z"/>
</g>
</svg>
