<svg xmlns="http://www.w3.org/2000/svg" viewBox="0 0 224.4 180"><defs><style>.cls-1{isolation:isolate;}.cls-2{fill:#f7f9f9;}</style></defs><g id="Laag_2" data-name="Laag 2"><g id="Laag_1-2" data-name="Laag 1"><g class="cls-1"><g class="cls-1"><path class="cls-2" d="M6,49.8Q6,31.21,20.7,15.6T55.8,0q21,0,35.7,16.5t14.7,42.3q0,34.8-24.9,69.3T19.2,180L0,137.4q30.6-22.18,35.4-42.6Q24.6,91.2,15.3,78A48,48,0,0,1,6,49.8Zm118.8,0q0-18.58,14.7-34.2T174.6,0q21,0,35.4,16.5t14.4,42.3q0,34.8-24.9,69.6T138,180l-19.8-42.6A146.75,146.75,0,0,0,141.9,117a51.26,51.26,0,0,0,12.3-22.2Q142.8,91.2,133.8,78A49.14,49.14,0,0,1,124.8,49.8Z"/></g></g></g></g></svg>