<svg width="24" height="25" viewBox="0 0 24 25" fill="none" xmlns="http://www.w3.org/2000/svg">
<g clip-path="url(#clip0_10_2116)">
<path d="M0.511097 12.8465C0.510539 14.863 1.03742 16.8319 2.03928 18.5674L0.415283 24.4969L6.48338 22.9058C8.16173 23.8195 10.0422 24.2982 11.9531 24.2983H11.9582C18.2665 24.2983 23.4017 19.165 23.4044 12.8556C23.4056 9.79816 22.216 6.92318 20.0547 4.7602C17.8938 2.59741 15.0198 1.40569 11.9577 1.4043C5.64859 1.4043 0.513795 6.53732 0.51119 12.8465" fill="url(#paint0_linear_10_2116)"/>
<path d="M0.102465 12.8429C0.101813 14.9319 0.647581 16.9713 1.68516 18.7688L0.00292969 24.9109L6.2886 23.2628C8.02051 24.2071 9.97046 24.7049 11.9547 24.7057H11.9598C18.4945 24.7057 23.8141 19.3877 23.8169 12.8524C23.818 9.68512 22.5856 6.70679 20.3471 4.46633C18.1083 2.22614 15.1316 0.991537 11.9598 0.990234C5.42395 0.990234 0.105162 6.30744 0.102558 12.8429H0.102465ZM3.84572 18.4593L3.61102 18.0867C2.62442 16.518 2.10367 14.7051 2.10442 12.8436C2.10656 7.41154 6.5274 2.99209 11.9635 2.99209C14.596 2.99321 17.0701 4.01944 18.9309 5.8814C20.7917 7.74354 21.8156 10.2189 21.8149 12.8516C21.8125 18.2837 17.3916 22.7037 11.9598 22.7037H11.9559C10.1872 22.7028 8.4526 22.2278 6.93986 21.3302L6.57986 21.1167L2.84981 22.0947L3.84572 18.4592V18.4593Z" fill="url(#paint1_linear_10_2116)"/>
<path d="M8.99621 7.88794C8.77426 7.39464 8.54067 7.38468 8.32961 7.37603C8.15677 7.36859 7.95919 7.36915 7.76179 7.36915C7.56421 7.36915 7.24319 7.44348 6.97184 7.73975C6.70021 8.03631 5.93481 8.75296 5.93481 10.2105C5.93481 11.6682 6.99649 13.0769 7.14449 13.2747C7.29268 13.4722 9.19407 16.5591 12.2054 17.7466C14.7081 18.7335 15.2174 18.5372 15.7606 18.4878C16.3038 18.4385 17.5135 17.7713 17.7603 17.0795C18.0073 16.3878 18.0073 15.7948 17.9332 15.6709C17.8592 15.5475 17.6616 15.4733 17.3653 15.3252C17.069 15.1771 15.6124 14.4603 15.3409 14.3614C15.0692 14.2626 14.8717 14.2133 14.6742 14.51C14.4766 14.8062 13.9092 15.4733 13.7363 15.6709C13.5636 15.869 13.3906 15.8936 13.0944 15.7454C12.798 15.5968 11.8438 15.2843 10.7118 14.2751C9.83109 13.4898 9.23649 12.52 9.06365 12.2234C8.89081 11.9272 9.04514 11.7666 9.1937 11.619C9.32681 11.4863 9.49007 11.2731 9.63835 11.1001C9.78607 10.9271 9.83537 10.8037 9.93416 10.6061C10.033 10.4083 9.98356 10.2353 9.90961 10.0871C9.83537 9.93892 9.25965 8.4738 8.99621 7.88803" fill="white"/>
</g>
<defs>
<linearGradient id="paint0_linear_10_2116" x1="11.9098" y1="24.4969" x2="11.9098" y2="1.4043" gradientUnits="userSpaceOnUse">
<stop stop-color="#1FAF38"/>
<stop offset="1" stop-color="#60D669"/>
</linearGradient>
<linearGradient id="paint1_linear_10_2116" x1="11.9099" y1="24.9109" x2="11.9099" y2="0.990234" gradientUnits="userSpaceOnUse">
<stop stop-color="#F9F9F9"/>
<stop offset="1" stop-color="white"/>
</linearGradient>
<clipPath id="clip0_10_2116">
<rect width="23.82" height="24" fill="white" transform="translate(0 0.990234)"/>
</clipPath>
</defs>
</svg>
